<svg width="62" height="66" viewBox="0 0 62 66" fill="none" xmlns="http://www.w3.org/2000/svg">
<path d="M15.8999 7.47033C7.68244 11.4391 0.889689 14.7973 0.787925 14.9245C0.648 15.1154 0.622559 18.3082 0.622559 32.7969C0.622559 49.4098 0.635279 50.4529 0.851528 50.6946C1.09322 50.9872 30.8083 65.3486 31.1645 65.3486C31.5079 65.3486 61.2103 50.9872 61.452 50.6946C61.6683 50.4529 61.681 49.4098 61.681 32.7841C61.681 16.1584 61.6683 15.1154 61.4647 14.8737C61.1722 14.5429 31.4825 0.219639 31.1136 0.232359C30.961 0.232359 24.1173 3.48881 15.8999 7.47033ZM44.979 8.90774C52.395 12.4949 58.4627 15.4461 58.4373 15.4588C58.4118 15.4842 56.6437 16.362 54.4939 17.3923L50.6014 19.2877L48.6043 18.2955C47.5103 17.7612 41.3791 14.7973 35.0061 11.719C28.6204 8.65333 23.3923 6.09651 23.3923 6.05835C23.3923 5.90571 31.0882 2.26764 31.279 2.33124C31.3807 2.3694 37.5502 5.32056 44.979 8.90774ZM34.7898 13.7288C42.2313 17.316 48.3245 20.2799 48.3245 20.318C48.3245 20.3816 42.9691 22.9893 42.8292 22.9893C42.7656 22.9893 36.4053 19.9364 20.9372 12.4568L15.4928 9.82362L15.9126 9.63281C16.1416 9.53105 17.3627 8.94591 18.6094 8.33532C19.8687 7.71202 20.9754 7.21592 21.0771 7.21592C21.1789 7.21592 27.3483 10.1544 34.7898 13.7288ZM27.6536 17.8121L41.9006 24.7066L41.9388 30.6216C41.9642 36.4731 41.9642 36.524 42.2441 36.8165C42.3967 36.9819 42.6511 37.1091 42.8292 37.1091C43.1854 37.1091 50.5378 33.5982 50.7668 33.3184C50.894 33.1785 50.9449 31.6775 50.9958 27.149L51.0594 21.1703L55.3716 19.0969C57.7504 17.952 59.7093 17.0107 59.7348 17.0107C59.7602 17.0107 59.7729 24.325 59.7729 33.2675V49.5243L46.0856 56.1263C38.5551 59.7643 32.3475 62.7536 32.2839 62.7791C32.2203 62.8045 32.1694 55.9863 32.1694 46.5604V30.2909L35.1842 28.8408C36.8506 28.0394 38.377 27.2889 38.5933 27.1871C39.1275 26.92 39.3565 26.3984 39.1403 25.9532C39.0512 25.7624 38.8095 25.5207 38.6187 25.4317C38.2753 25.2663 38.1353 25.3172 35.693 26.4875C34.281 27.1744 32.6782 27.9249 32.1313 28.1793L31.1518 28.6373L29.9688 28.0903C29.3327 27.785 28.6458 27.4797 28.455 27.4034C27.9589 27.1998 27.4501 27.4161 27.2593 27.8995C26.9922 28.5482 27.2339 28.8153 28.7603 29.604L30.1341 30.3036V46.5604C30.1341 55.503 30.0833 62.8045 30.0324 62.7791C29.9688 62.7664 23.7612 59.7643 16.2306 56.1263L2.53063 49.5116V33.2675C2.53063 24.325 2.55608 17.0107 2.58152 17.0107C2.60696 17.0107 7.36443 19.3004 13.165 22.0989C19.3471 25.0882 23.8375 27.1871 24.0537 27.1871C24.2445 27.1871 24.5244 27.0726 24.6643 26.9327C24.9823 26.6147 24.995 25.9023 24.7025 25.6225C24.5753 25.5207 21.8404 24.1596 18.6221 22.6077C8.35663 17.6595 7.7206 17.3542 5.74892 16.3747L3.81541 15.4206L8.48383 13.1691C11.0534 11.9352 13.2159 10.9176 13.2795 10.9176C13.3558 10.9176 19.8178 14.0214 27.6536 17.8121ZM49.0877 27.1617V32.1099L46.5563 33.3311C45.1571 34.018 43.9868 34.565 43.9486 34.565C43.9104 34.565 43.8723 32.3389 43.8723 29.604V24.6557L46.3273 23.4473C47.663 22.7858 48.846 22.2388 48.935 22.2388C49.0495 22.2261 49.0877 23.2946 49.0877 27.1617Z" fill="black"/>
</svg>
