<svg width="36" height="40" xmlns="http://www.w3.org/2000/svg">
 <g id="Layer_1">
  <title>Layer 1</title>
  <g>
   <path fill="black" d="m8.53507,0.1c-0.46895,0.23447 -0.67997,0.96915 -0.39079,1.40683c0.32044,0.48458 0.1485,0.46895 4.71287,0.49239l4.1658,0.02345l0,1.68039l0,1.68819l0.2579,0.25792c0.172,0.17195 0.3674,0.27355 0.5706,0.30482c0.9691,0.14849 1.4381,0.38297 1.7741,0.89099c0.5628,0.85973 0.469,1.7898 -0.2501,2.50885l-0.3595,0.35953l-0.0391,-0.54711c-0.0469,-0.60962 -0.1328,-0.81283 -0.4376,-1.01604c-0.2423,-0.15632 -0.7816,-0.17976 -1.0317,-0.0469c-0.3048,0.16413 -0.4846,0.5471 -0.4846,1.0395c0,0.53147 -0.086,0.57055 -0.4455,0.19539c-0.3048,-0.31263 -0.5627,-0.86755 -0.5705,-1.21144c0,-0.65652 -0.4221,-1.10983 -1.0239,-1.10983c-0.9692,0 -1.2505,0.97696 -0.6956,2.43851c0.3908,1.05514 1.4459,2.00864 2.6026,2.36034c0.1173,0.0391 0.1329,0.1641 0.1329,1.2505l0,1.2036l-0.3283,0.1173c-3.0403,1.0551 -16.13163,5.6977 -16.24887,5.7602c-0.08598,0.0469 -0.22666,0.2032 -0.30481,0.3361c-0.1485,0.2422 -0.15632,0.4767 -0.15632,9.5117c0,9.0506 0.00782,9.2695 0.15632,9.5118c0.32044,0.5314 -1.188,0.4924 17.83548,0.4924c16.2411,0 17.2337,-0.0079 17.4838,-0.1407c0.1485,-0.0704 0.3361,-0.2579 0.4143,-0.4064c0.1328,-0.258 0.1406,-0.6956 0.1406,-9.4415c0,-10.0275 0.0235,-9.5195 -0.4376,-9.8243c-0.1407,-0.0938 -11.4501,-4.1267 -16.2646,-5.7993l-0.3361,-0.1173l0,-1.2036c0,-1.0785 0.0157,-1.2114 0.1407,-1.2505c0.6018,-0.1954 1.2818,-0.6174 1.7195,-1.0786c1.3834,-1.44588 1.5241,-3.57957 0.3439,-5.15053c-0.4533,-0.594 -0.9926,-1.00823 -1.6726,-1.2896l-0.5315,-0.21103l0,-1.03949l0,-1.03167l4.0486,-0.00782c2.9153,0 4.1189,-0.02345 4.3143,-0.09379c0.3673,-0.12505 0.6252,-0.53147 0.6252,-0.96915c0,-0.27355 -0.0469,-0.39079 -0.2657,-0.63307l-0.2657,-0.28919l-9.332,-0.01563c-8.19091,-0.01563 -9.35546,-0.00781 -9.56648,0.09379zm15.02968,17.91368l5.4866,1.9383l-5.5023,0.0234c-3.0246,0.0079 -7.9955,0.0079 -11.0514,0l-5.54918,-0.0234l5.44758,-1.9305c2.9934,-1.0629 5.5023,-1.9305 5.5648,-1.9305c0.0625,-0.0078 2.587,0.8597 5.6039,1.9227zm10.4184,11.9815l0,7.9721l-15.9832,0l-15.98321,0l0,-7.9721l0,-7.972l15.98321,0l15.9832,0l0,7.972z"/>
  </g>
  <g>
   <path fill="black" d="m17.54278,25.0452c-0.12505,0.06253 -0.30481,0.22666 -0.39079,0.36734c-0.14068,0.24229 -0.1485,0.42205 -0.1485,4.50968c0,4.08763 0.00782,4.26739 0.15632,4.50968c0.38297,0.64085 1.29741,0.64085 1.68038,0c0.1485,-0.24229 0.15632,-0.42205 0.15632,-4.50968c0,-4.08763 -0.00782,-4.26739 -0.15632,-4.50968c-0.27355,-0.45331 -0.81283,-0.60963 -1.29741,-0.36734z"/>
  </g>
  <g>
   <path fill="black" d="m21.53929,25.0404c-0.12505,0.06253 -0.30481,0.22666 -0.39079,0.36734c-0.14068,0.24229 -0.1485,0.42205 -0.1485,4.50968c0,4.08763 0.00782,4.26739 0.15632,4.50968c0.38297,0.64085 1.29741,0.64085 1.68038,0c0.1485,-0.24229 0.15632,-0.42205 0.15632,-4.50968c0,-4.08763 -0.00782,-4.26739 -0.15632,-4.50968c-0.27355,-0.45331 -0.81283,-0.60963 -1.29741,-0.36734z"/>
  </g>
  <g>
   <path fill="black" d="m25.53929,25.08512c-0.12505,0.06253 -0.30481,0.22666 -0.39079,0.36734c-0.14068,0.24229 -0.1485,0.42205 -0.1485,4.50968c0,4.08763 0.00782,4.26739 0.15632,4.50968c0.38297,0.64085 1.29741,0.64085 1.68038,0c0.1485,-0.24229 0.15632,-0.42205 0.15632,-4.50968c0,-4.08763 -0.00782,-4.26739 -0.15632,-4.50968c-0.27355,-0.45331 -0.81283,-0.60963 -1.29741,-0.36734z"/>
  </g>
  <g>
   <path fill="black" d="m29.53929,25.08512c-0.12505,0.06253 -0.30481,0.22666 -0.39079,0.36734c-0.14068,0.24229 -0.1485,0.42205 -0.1485,4.50968c0,4.08763 0.00782,4.26739 0.15632,4.50968c0.38297,0.64085 1.29741,0.64085 1.68038,0c0.1485,-0.24229 0.15632,-0.42205 0.15632,-4.50968c0,-4.08763 -0.00782,-4.26739 -0.15632,-4.50968c-0.27355,-0.45331 -0.81283,-0.60963 -1.29741,-0.36734z"/>
  </g>
  <g>
   <path fill="black" d="m13.53929,25.08512c-0.12505,0.06253 -0.30481,0.22666 -0.39079,0.36734c-0.14068,0.24229 -0.1485,0.42205 -0.1485,4.50968c0,4.08763 0.00782,4.26739 0.15632,4.50968c0.38297,0.64085 1.29741,0.64085 1.68038,0c0.1485,-0.24229 0.15632,-0.42205 0.15632,-4.50968c0,-4.08763 -0.00782,-4.26739 -0.15632,-4.50968c-0.27355,-0.45331 -0.81283,-0.60963 -1.29741,-0.36734z"/>
  </g>
  <g>
   <path fill="black" d="m9.53929,25.08512c-0.12505,0.06253 -0.30481,0.22666 -0.39079,0.36734c-0.14068,0.24229 -0.1485,0.42205 -0.1485,4.50968c0,4.08763 0.00782,4.26739 0.15632,4.50968c0.38297,0.64085 1.29741,0.64085 1.68038,0c0.1485,-0.24229 0.15632,-0.42205 0.15632,-4.50968c0,-4.08763 -0.00782,-4.26739 -0.15632,-4.50968c-0.27355,-0.45331 -0.81283,-0.60963 -1.29741,-0.36734z"/>
  </g>
  <g>
   <path fill="black" d="m5.53929,25.08512c-0.12505,0.06253 -0.30481,0.22666 -0.39079,0.36734c-0.14068,0.24229 -0.1485,0.42205 -0.1485,4.50968c0,4.08763 0.00782,4.26739 0.15632,4.50968c0.38297,0.64085 1.29741,0.64085 1.68038,0c0.1485,-0.24229 0.15632,-0.42205 0.15632,-4.50968c0,-4.08763 -0.00782,-4.26739 -0.15632,-4.50968c-0.27355,-0.45331 -0.81283,-0.60963 -1.29741,-0.36734z"/>
  </g>
 </g>

</svg>