<svg width="37" height="37" xmlns="http://www.w3.org/2000/svg">
 <g id="Layer_1">
  <title>Layer 1</title>
  <g>
   <path stroke-width="0.3" stroke="black" fill="black" d="m24.48251,1.65817l-22.94026,0l0,15.74737l16.44366,0c0.143,-0.0096 0.2867,-0.0048 0.4287,0.0143c0.4104,0.0675 0.6884,0.4549 0.6209,0.8653c-0.0508,0.3089 -0.2874,0.5542 -0.5942,0.6161c-0.1573,0.0254 -0.3171,0.032 -0.476,0.0198l-16.9593,0c-0.74572,0 -1.006,-0.2522 -1.006,-0.9997c0,-11.8399 0,-5.0092 0,-16.84905c0,-0.68851 0.26655,-0.95575 0.95262,-0.95575c8.01545,0 16.03128,0 24.04768,0c0.7456,0 0.9997,0.25791 0.9997,1.00539l0,6.41099l0,0.14348c-0.0049,0.68355 -0.274,1.04769 -0.7742,1.03897c-0.4816,-0.0081 -0.7456,-0.36169 -0.7456,-1.01847c0,-4.04772 0,-1.4075 0,-5.45523l0.0023,-0.5835z"/>
  </g>
  <g>
   <path stroke-width="0.3" stroke="black" fill="black" d="m7.37379,5.52973c0.99904,0 1.99807,-0.00392 2.99711,0c0.68573,0.00392 0.97503,0.2925 0.97503,0.97048c0.00256,1.99807 0.00256,3.99614 0,5.99421c0,0.7559 -0.26778,1.02312 -1.02048,1.0244c-1.99807,0.00392 -3.99614,0.00392 -5.99421,0c-0.68181,0 -0.97503,-0.28666 -0.97503,-0.97111c-0.0048,-2.03104 -0.0048,-4.06239 0,-6.09431c-0.06392,-0.44595 0.2457,-0.85934 0.69165,-0.92335c0.07609,-0.01096 0.15329,-0.01104 0.22938,-0.00032c1.03216,-0.00584 2.06431,0 3.09655,0zm-2.4121,6.36993l4.76508,0l0,-4.75085l-4.76508,0l0,4.75085z"/>
  </g>
  <g>
   <path stroke-width="0.3" stroke="black" fill="black" d="m17.29693,7.45267c-0.95392,0 -1.9083,0 -2.86214,0c-0.563,-0.00306 -0.90535,-0.29768 -0.90351,-0.75996c0.00183,-0.46235 0.34739,-0.75314 0.90971,-0.75368c1.93996,-0.00375 3.87999,-0.00375 5.81988,0c0.55933,0 0.90542,0.30013 0.90351,0.75934c-0.00191,0.45922 -0.3467,0.75185 -0.90979,0.7543c-0.98787,0.00558 -1.97407,0 -2.95766,0z"/>
  </g>
  <g>
   <path stroke-width="0.3" stroke="black" fill="black" d="m16.25713,11.14759c-0.60392,0 -1.208,0.00558 -1.81192,0c-0.41822,0.05155 -0.79912,-0.24567 -0.85074,-0.66396c-0.05163,-0.4183 0.24567,-0.79912 0.66388,-0.85074c0.06456,-0.00796 0.1298,-0.00765 0.19427,0.00099c1.20754,-0.00665 2.41532,-0.00665 3.62332,0c0.4186,-0.05162 0.79972,0.24598 0.85135,0.6645c0.05163,0.41853 -0.24598,0.7998 -0.6645,0.85135c-0.06455,0.00796 -0.1298,0.00773 -0.19427,-0.00099c-0.60339,0.00505 -1.20617,-0.00115 -1.81139,-0.00115z"/>
  </g>
  <path fill="black" d="m28.94386,25.91927c0.9061,0.1881 1.7848,0.4 2.6747,0.5428c3.6759,0.5903 4.4437,2.2696 4.9683,5.018c0.2477,1.5675 0.4154,3.1467 0.5023,4.7315c0.0944,0.4136 -0.1624,0.826 -0.5737,0.9209c-0.0506,0.0117 -0.1023,0.0182 -0.1542,0.0193c-0.4768,0.0138 -0.7796,-0.3454 -0.7858,-0.9402c0.0508,-1.6885 -0.1505,-3.3751 -0.597,-5.0035c-0.2185,-0.5899 -0.4143,-1.6334 -1.1777,-2.2858c-0.5985,-0.5116 -1.6932,-0.7761 -1.6932,-0.7761c-1.9989,-0.494 -3.374,-0.717 -5.4266,-0.88c-1.2615,-0.0826 -3.2226,0 -3.2226,0c-1.95134,0.1262 -3.8497,0.6044 -4.48568,0.922c-0.75918,0.3791 -1.36402,0.664 -1.81087,1.2009c-0.61286,0.7364 -1.00834,1.6307 -1.14157,2.5817c-0.19199,1.3312 -0.27483,2.6788 -0.40077,4.0201c-0.01488,0.1591 0.0125,0.3246 -0.01488,0.4807c-0.03398,0.3881 -0.3605,0.6836 -0.74778,0.6768c-0.39049,0.0214 -0.72469,-0.2786 -0.74785,-0.6712c-0.00805,-2.4388 0.13906,-4.8575 1.24634,-7.0958c0.7635,-1.5216 2.21326,-2.5762 3.88914,-2.8292c0.99699,-0.2069 1.99404,-0.4106 3.02731,-0.6224c-0.02746,-0.0625 -0.06205,-0.1216 -0.10286,-0.1761c-1.2412,-1.3243 -1.93222,-3.0757 -1.93184,-4.8958c-0.00406,-0.0642 -0.00406,-0.1287 0,-0.193c0.0685,-1.73813 -0.33803,-3.46201 -1.17524,-4.98406c-0.32652,-0.67945 -0.67797,-1.34632 -1.00572,-2.02515c-0.23218,-0.32919 -0.15502,-0.78537 0.17219,-1.01889c0.04633,-0.03302 0.09619,-0.06041 0.14865,-0.0817c2.05587,-1.07391 4.2478,-1.86067 6.51503,-2.33852c0.9057,-0.14334 1.8328,-0.04637 2.6895,0.28143c1.7262,0.61796 3.4274,1.3062 5.1274,1.99629c0.582,0.23692 0.6886,0.63995 0.41,1.21594c-0.2492,0.51959 -0.4984,1.0442 -0.777,1.54813c-0.4069,0.91822 -0.751,1.86329 -1.0301,2.82864c-0.4443,1.12819 -0.2562,2.26459 -0.3964,3.38969c-0.131,1.5988 -0.7971,3.1057 -1.8894,4.2746c-0.0345,0.0522 -0.0622,0.1086 -0.0821,0.168zm-7.13701,-6.5097c-0.16038,1.2916 -0.02846,2.6028 0.38574,3.8359c0.7276,1.8893 2.84017,2.8276 4.71857,2.0958c0.9297,-0.3622 1.6715,-1.0915 2.0528,-2.018c0.4356,-1.261 0.59,-2.6028 0.4523,-3.9306c-2.4417,0.9804 -5.1634,0.9864 -7.60941,0.0169zm-2.08693,-5.81455c0.30474,0.61295 0.56829,1.17898 0.87242,1.72365c0.09412,0.13285 0.24208,0.21648 0.40384,0.22813c3.06838,0.01335 6.13668,0.01466 9.20468,0.00378c0.136,0.00617 0.2681,-0.04675 0.3627,-0.14542c0.3159,-0.58664 0.602,-1.19087 0.9628,-1.92046c-1.6826,-0.57722 -3.284,-1.16895 -4.9136,-1.66031c-0.5566,-0.14311 -1.1376,-0.16278 -1.7025,-0.0577c-1.80168,0.38034 -3.54644,0.9949 -5.19034,1.82833zm1.5741,3.50994c-0.05415,0.37332 0.20287,0.72018 0.57404,0.77465c0.01235,0.00177 0.02478,0.00331 0.0372,0.00447c0.24929,0.04575 0.48668,0.15037 0.73351,0.21563c1.15539,0.30389 2.31749,0.69943 3.52199,0.50139c1.1417,-0.19117 2.2621,-0.52083 3.3869,-0.80728c0.4044,-0.10346 0.4418,-0.21054 0.3645,-0.68577l-8.61814,-0.00309zm5.38694,10.16121c-1.2615,-0.0826 -3.2226,0 -3.2226,0c0.8486,-0.0549 2.0644,-0.0907 3.2226,0z"/>
 </g>

</svg>