<svg width="36" height="36" xmlns="http://www.w3.org/2000/svg">

 <g>
  <title>Layer 1</title>
  <g>
   <path stroke-width="0.6" stroke="black" fill="black" d="m1.95511,6.17217c-0.72512,0.15494 -1.4293,0.72512 -1.75313,1.42931l-0.20413,0.43653l0,6.3722c0,5.89343 0.00698,6.41443 0.12667,6.97063c0.19715,0.9014 0.50702,1.4855 1.25343,2.3307c0.8661,0.9788 2.18269,2.556 4.56253,5.4851l1.97856,2.4294l0,1.7745l0,1.7814l0.20413,0.2254c0.27463,0.3099 0.68987,0.3238 0.97878,0.0352l0.1902,-0.1902l0.0209,-2.0138c0.014,-1.5772 0,-2.049 -0.0774,-2.197c-0.1267,-0.2676 -4.80194,-6.0131 -6.0976,-7.5059c-1.13374,-1.3026 -1.22516,-1.4154 -1.38708,-1.7674c-0.33079,-0.7182 -0.34511,-1.0068 -0.34511,-7.39328c0,-5.90739 0,-5.98485 0.14796,-6.23158c0.44351,-0.75338 1.49979,-0.75338 1.87281,0c0.11969,0.22543 0.12667,0.57753 0.12667,4.17556l0,3.9288l-0.27463,0.3308c-0.14796,0.1832 -0.31685,0.4226 -0.37339,0.5423c-0.31611,0.655 -0.3374,1.4928 -0.0558,2.2532c0.14796,0.4013 0.3308,0.5984 3.30211,3.5698c2.23923,2.2462 3.19676,3.1615 3.34466,3.1967c0.3239,0.0775 0.6903,-0.148 0.8026,-0.4927c0.0492,-0.148 0.0705,-0.3382 0.0423,-0.4226c-0.0213,-0.0844 -1.40108,-1.5137 -3.05581,-3.1754c-1.65473,-1.6687 -3.04878,-3.1054 -3.09798,-3.2038c-0.14098,-0.2606 -0.11271,-0.8661 0.0492,-1.1337c0.07049,-0.1337 0.26765,-0.3308 0.42258,-0.4435c0.23938,-0.1619 0.36605,-0.2042 0.66894,-0.2042c0.21111,0 0.45784,0.0423 0.54926,0.0915c0.23937,0.1196 6.47091,6.3299 6.92841,6.9005c0.8026,1.0067 1.2039,1.915 1.4576,3.3094c0.0492,0.2886 0.0984,1.8306 0.1266,4.1682l0.0423,3.7178l0.1901,0.1902c0.2956,0.2885 0.7042,0.2746 0.9858,-0.0423l0.2042,-0.2324l-0.0213,-3.8796c-0.0283,-3.6685 -0.0353,-3.9219 -0.1832,-4.5556c-0.2959,-1.3378 -0.7534,-2.3659 -1.4363,-3.2881c-0.4644,-0.6198 -6.96368,-7.1469 -7.37892,-7.4145c-0.39431,-0.2464 -0.97881,-0.42263 -1.42232,-0.42263l-0.33815,0l0,-3.47137c0,-1.90109 -0.02827,-3.64724 -0.07049,-3.87964c-0.19018,-1.17597 -1.11943,-2.02775 -2.31669,-2.11954c-0.21809,-0.01395 -0.52759,0.00037 -0.68987,0.03561z"/>
  </g>
  <g>
   <path stroke-width="0.6" stroke="black" fill="black" d="m17.34805,0.28255c-0.93623,0.45049 -8.54093,4.65431 -8.6955,4.80925l-0.17586,0.16889l-0.0213,4.3867c-0.01395,2.4081 0,4.5133 0.0213,4.6822c0.04222,0.2959 0.05617,0.3099 4.4924,3.9362c2.44997,1.9994 4.53389,3.6685 4.64661,3.7107c0.13401,0.0492 0.24639,0.0492 0.38729,0c0.2607,-0.0984 8.8086,-7.0833 9.0128,-7.3649l0.1549,-0.2255l-0.014,-4.5698l-0.0212,-4.56992l-0.2112,-0.18321c-0.2816,-0.25333 -8.745,-4.85844 -9.0127,-4.90764c-0.14096,-0.02791 -0.32416,0.01431 -0.56354,0.12703zm4.05584,3.33736c1.9716,1.07721 3.5841,1.97158 3.5841,1.99251c0,0.07049 -7.0764,4.53467 -7.18211,4.53467c-0.10574,0 -7.18212,-4.46381 -7.18212,-4.53431c0,-0.02827 7.10465,-3.93617 7.1678,-3.94315c0.01432,0 1.64073,0.88005 3.61233,1.95028zm-7.76622,5.64708l3.46439,2.204l0,4.1542l0,4.1473l-0.40129,-0.3168c-0.22543,-0.1759 -1.85189,-1.5068 -3.61199,-2.95l-3.20372,-2.6262l-0.02129,-3.5067l-0.01396,-3.50657l0.15494,0.09876c0.09105,0.05581 1.72449,1.09116 3.63292,2.30201zm12.09642,4.5559c-0.014,0.0422 -1.5913,1.3588 -3.5067,2.9152c-1.9077,1.5629 -3.5271,2.8865 -3.5907,2.943c-0.1196,0.0988 -0.1266,-0.0987 -0.1266,-4.0485l0,-4.1613l3.612,-2.2954l3.605,-2.29535l0.0209,3.43615c0.0073,1.8867 0.0004,3.4636 -0.0139,3.5062z"/>
  </g>
  <g>
   <path stroke-width="0.6" stroke="black" fill="black" d="m32.77241,6.21057c-0.5279,0.14796 -0.7673,0.28857 -1.1337,0.66196c-0.3804,0.37339 -0.6124,0.80956 -0.7112,1.33788c-0.0422,0.22543 -0.0705,1.80967 -0.0705,3.88662l0,3.51359l-0.3381,0c-0.4435,0 -1.028,0.17583 -1.4223,0.42263c-0.41492,0.2676 -6.91414,6.7947 -7.37858,7.4141c-0.6829,0.9223 -1.14073,1.9503 -1.43628,3.2882c-0.14796,0.6337 -0.15494,0.887 -0.18321,4.5555l-0.02092,3.8797l0.20413,0.2324c0.2816,0.3168 0.68987,0.3308 0.98579,0.0422l0.19018,-0.1902l0.04222,-3.7177c0.02827,-2.3376 0.07747,-3.8797 0.12667,-4.1682c0.25333,-1.3941 0.65462,-2.3024 1.45757,-3.3095c0.45746,-0.5705 6.68903,-6.7805 6.92843,-6.9005c0.0914,-0.0492 0.3381,-0.0914 0.5492,-0.0914c0.6899,0 1.2322,0.5422 1.2322,1.2461c0,0.2041 -0.0422,0.4435 -0.0914,0.5353c-0.0492,0.0984 -1.4437,1.535 -3.09802,3.2037c-3.25291,3.2672 -3.22464,3.239 -2.97829,3.7177c0.12667,0.2533 0.50703,0.4365 0.76734,0.373c0.14098,-0.0352 1.16165,-1.0067 3.34467,-3.1967c2.9713,-2.9713 3.1546,-3.1685 3.3025,-3.5698c0.2816,-0.7603 0.2607,-1.5982 -0.0562,-2.2532c-0.0561,-0.1196 -0.2254,-0.359 -0.373,-0.5422l-0.2746,-0.3308l0,-3.9285c0,-3.59803 0.007,-3.95013 0.1267,-4.17555c0.373,-0.75339 1.4293,-0.75339 1.8728,0c0.1479,0.24635 0.1479,0.32382 0.1479,6.23157c0,6.38618 -0.0139,6.67508 -0.3451,7.39328c-0.1619,0.352 -0.2533,0.4648 -1.3871,1.7674c-1.3378,1.549 -5.92864,7.1961 -6.08358,7.492c-0.09876,0.1832 -0.10574,0.4927 -0.09142,2.2179l0.02129,2.0068l0.19019,0.1902c0.28857,0.2886 0.70418,0.2747 0.97881,-0.0352l0.20413,-0.2254l0,-1.7814l0,-1.7745l1.97858,-2.4294c2.3798,-2.9291 3.6964,-4.5063 4.5629,-5.4851c0.7464,-0.8448 1.0563,-1.4293 1.2534,-2.3307c0.1197,-0.5562 0.1267,-1.0772 0.1267,-6.97063l0,-6.3722l-0.2042,-0.43653c-0.5015,-1.09153 -1.7898,-1.71127 -2.9166,-1.39442z"/>
  </g>
 </g>
</svg>