<svg width="28" height="34" xmlns="http://www.w3.org/2000/svg">
 <g id="Layer_1">
  <title>Layer 1</title>
  <g>
   <path fill="black" d="m2.74014,0.48309c-1.10677,0.37761 -1.97916,1.34115 -2.20703,2.44141c-0.10417,0.49479 -0.10417,27.66924 0,28.15104c0.24089,1.1198 1.15886,2.1224 2.25912,2.4609c0.41015,0.1302 0.625,0.1302 11.21093,0.1302c10.5859,0 10.8008,0 11.2109,-0.1302c0.8138,-0.2474 1.5886,-0.9049 1.9662,-1.6536c0.3841,-0.7682 0.3646,-0.1758 0.3646,-11.3737c0,-6.9857 -0.0196,-10.332 -0.0651,-10.4557c-0.0782,-0.20837 -9.3099,-9.4792 -9.5834,-9.62894c-0.1497,-0.07813 -1.25,-0.09115 -7.4544,-0.09115l-7.27864,0.00651l-0.42318,0.14323zm13.61982,6.17839c0.0195,4.13416 0.026,4.25786 0.1497,4.42706c0.0716,0.0977 0.2344,0.2344 0.3646,0.306c0.2344,0.1367 0.3125,0.1367 4.3815,0.1367l4.1406,0l0,9.5378c0,9.401 0,9.5443 -0.1302,9.7982c-0.1627,0.3255 -0.4752,0.5599 -0.8463,0.6445c-0.4037,0.0911 -20.42972,0.0911 -20.83336,0c-0.3711,-0.0846 -0.6836,-0.319 -0.84636,-0.6445c-0.13021,-0.2539 -0.13021,-0.4037 -0.13021,-13.8672c0,-13.46356 0,-13.6133 0.13021,-13.86721c0.15625,-0.3125 0.48177,-0.5664 0.82031,-0.64453c0.14323,-0.03255 2.94922,-0.05859 6.51691,-0.0651l6.2696,-0.00651l0.013,4.24479zm4.8372,0.05208l2.6693,2.66927l-2.6888,0l-2.6823,0l0,-2.66927c0,-1.47135 0.0065,-2.66927 0.0195,-2.66927c0.0065,0 1.2175,1.19792 2.6823,2.66927z"/>
  </g>
  <g>
   <path fill="black" d="m7.28809,15.97524c-0.49479,0.15625 -0.8138,0.64453 -0.7552,1.15885c0.03255,0.33203 0.1888,0.57292 0.5013,0.78125l0.21484,0.14974l6.7513,0l6.75126,0l0.2149,-0.14974c0.3125,-0.20833 0.4687,-0.44922 0.5013,-0.78125c0.0456,-0.39713 -0.1628,-0.83333 -0.4883,-1.03515l-0.2409,-0.14974l-6.6406,-0.01302c-3.65234,-0.00652 -6.71875,0.01302 -6.8099,0.03906z"/>
  </g>
  <g>
   <path fill="black" d="m7.28809,21.6356c-0.49479,0.15625 -0.8138,0.64453 -0.7552,1.15885c0.03255,0.33203 0.1888,0.57292 0.5013,0.78125l0.21484,0.14974l6.7513,0l6.75126,0l0.2149,-0.14974c0.3125,-0.20833 0.4687,-0.44922 0.5013,-0.78125c0.0456,-0.39713 -0.1628,-0.83333 -0.4883,-1.03515l-0.2409,-0.14974l-6.6406,-0.01302c-3.65234,-0.00652 -6.71875,0.01302 -6.8099,0.03906z"/>
  </g>
 </g>

</svg>