<svg width="32" height="29" xmlns="http://www.w3.org/2000/svg">
 <g id="Layer_1">
  <title>Layer 1</title>
  <g>
   <path fill="black" d="m5.53993,4.95017c-0.39293,0.20582 -0.56757,0.53015 -0.53639,0.99793c0.03119,0.53015 0.33681,0.87943 0.86072,0.98546c0.39293,0.07484 12.93563,0.0686 13.33483,-0.00624c0.4054,-0.07485 0.6611,-0.24948 0.8171,-0.56134c0.2432,-0.47401 0.0873,-1.07277 -0.3556,-1.37215l-0.2307,-0.15593l-6.80466,-0.01871l-6.80463,-0.01247l-0.28067,0.14345z"/>
  </g>
  <g>
   <path fill="black" d="m5.80882,11.05717c-0.46154,0.11227 -0.76092,0.47402 -0.80458,0.96051c-0.03742,0.4553 0.17464,0.83576 0.56757,1.02911c0.2682,0.13098 0.3368,0.13098 4.17883,0.13098c4.16636,0 4.16012,0 4.49068,-0.29938c0.499,-0.45531 0.3805,-1.35344 -0.23077,-1.70272l-0.25572,-0.14969l-3.86697,-0.01247c-2.12684,-0.00624 -3.96054,0.01247 -4.07904,0.04366z"/>
  </g>
  <g>
   <path fill="black" d="m5.54616,17.14498c-0.39918,0.20582 -0.57381,0.53015 -0.54263,0.99793c0.03742,0.59876 0.39294,0.94179 1.0603,1.0104c0.21206,0.02495 1.60916,0.03119 3.09982,0.01871c2.70064,-0.01871 2.71312,-0.01871 2.9626,-0.16216c0.70479,-0.40541 0.76716,-1.30354 0.11851,-1.79627l-0.23078,-0.18088l-3.09981,-0.01871l-3.09358,-0.01871l-0.27443,0.14969z"/>
  </g>
  <g>
   <path fill="black" d="m0.87087,0.06269c-0.30562,0.07484 -0.51768,0.24948 -0.67361,0.56133l-0.14345,0.27443l0,11.36394c0,7.8836 0.01871,11.42 0.06861,11.5448c0.08732,0.237 0.35551,0.5177 0.59875,0.6174c0.16841,0.0749 1.6154,0.0874 8.6508,0.0874l8.45124,0l0.0187,1.9833l0.0187,1.9897l0.1746,0.2245c0.2246,0.2994 0.4928,0.4304 0.8545,0.4304c0.237,0 0.5052,-0.1123 1.684,-0.6986l1.3971,-0.6985l1.4096,0.6985c1.185,0.5863 1.4532,0.6986 1.6965,0.6986c0.3929,0 0.711,-0.1684 0.9106,-0.4678l0.1684,-0.2495l0.0187,-1.9584l0.0187,-1.9522l2.4636,0c1.9522,0 2.5011,-0.0187 2.6633,-0.0874c0.2432,-0.0997 0.5114,-0.3804 0.5987,-0.6174c0.0499,-0.1248 0.0686,-3.6612 0.0686,-11.5448l0,-11.36394l-0.1372,-0.27443c-0.1684,-0.32433 -0.3742,-0.48649 -0.711,-0.56133c-0.2994,-0.07485 -29.96907,-0.06861 -30.26845,0l0.00001,0zm28.93374,12.1934l0,10.0729l-1.8088,0l-1.8087,0l0,-1.0478l0,-1.0479l0.3118,-0.3056c0.6861,-0.6736 1.316,-1.8025 1.5718,-2.8129c0.1871,-0.7297 0.1995,-2.3202 0.0311,-2.9564c-0.3492,-1.2785 -0.9043,-2.2328 -1.7775,-3.0686c-0.7984,-0.7609 -1.7027,-1.26611 -2.7568,-1.55925c-0.4678,-0.12474 -0.6674,-0.14345 -1.6216,-0.13721c-0.998,0 -1.1414,0.01871 -1.6404,0.1684c-2.526,0.77336 -4.2661,2.85036 -4.5218,5.40756c-0.1872,1.8149 0.4054,3.5426 1.7027,4.9771l0.343,0.3743l0,1.0041l0,1.0042l-7.79631,0l-7.79632,0l0,-10.0729l0,-10.0728l13.78393,0l13.7839,0l0,10.0728zm-6.6425,-0.5925c0.6861,0.2121 1.1913,0.5239 1.7464,1.0853c0.8108,0.817 1.1725,1.7027 1.1725,2.8441c0,1.9896 -1.3596,3.6362 -3.3243,4.0291c-1.9023,0.3805 -3.842,-0.6923 -4.5718,-2.5322c-0.9231,-2.3452 0.4865,-4.9523 2.9813,-5.5136c0.5614,-0.1247 1.4096,-0.0873 1.9959,0.0873zm-2.3389,10.0791c0.867,0.1684 2.3701,0.0873 3.0374,-0.1684l0.1435,-0.0561l0,2.4012l0,2.3951l-0.8545,-0.4179c-1.1289,-0.5551 -1.1913,-0.5551 -2.3077,0.0062c-0.4553,0.2308 -0.842,0.4179 -0.8607,0.4179c-0.0437,0 -0.0374,-4.709 0.0062,-4.7589c0.0187,-0.0187 0.1123,-0.0062 0.2059,0.025c0.0873,0.0374 0.3742,0.106 0.6299,0.1559z"/>
  </g>
 </g>

</svg>