<svg width="81" height="54" viewBox="0 0 81 54" fill="none" xmlns="http://www.w3.org/2000/svg">
<path d="M15.4479 0.953175L15.0416 1.35942V4.50005V7.62505H12.1666H9.2916L8.82285 8.07818C8.55723 8.35943 8.32285 8.7813 8.27598 9.14068C8.21348 9.4688 8.1666 11.5782 8.1666 13.8282V17.9063L6.13535 17.9688C4.1666 18.0157 4.1041 18.0313 3.68223 18.4532C3.24473 18.8751 3.24473 18.8907 3.24473 21.0001V23.1251L3.76035 23.5782C4.0416 23.8282 4.36973 24.0313 4.49473 24.0313C4.69785 24.0313 4.7291 24.5313 4.7291 27.4688V30.9063H3.40098C1.8541 30.9063 1.27598 31.1251 0.885354 31.8751C-0.0677714 33.7188 2.46348 39.7813 5.94785 44.0313C6.4791 44.6719 6.9166 45.3438 6.9166 45.5313C6.9166 45.7032 6.4166 46.9063 5.80723 48.1876C4.80723 50.3282 4.71348 50.5782 4.77598 51.3438C4.82285 51.9376 4.93223 52.2657 5.21348 52.5626C6.05723 53.4688 3.7916 53.4063 37.4635 53.4063C70.5416 53.4063 69.0885 53.4376 69.7604 52.6876C69.901 52.5157 72.401 47.3594 75.2916 41.2188C80.9166 29.2501 81.0104 29.0469 80.4479 27.9532C80.2916 27.6876 79.9635 27.3126 79.6822 27.1563C79.2135 26.8594 78.8541 26.8438 73.4322 26.8438C68.0416 26.8438 67.651 26.8594 67.0885 27.1563C66.4947 27.4532 65.6979 28.2657 65.6354 28.6094C65.6197 28.7188 65.5729 27.2501 65.526 25.3594C65.4322 21.6251 65.401 21.5001 64.4635 20.8907C64.0572 20.6251 63.6354 20.5938 59.4635 20.5938H54.8854V16.0626C54.8854 12.8907 54.8229 11.4219 54.6979 11.1407C54.3072 10.2657 54.5572 10.2813 43.1041 10.2813C35.5416 10.2813 32.4479 10.3282 32.1666 10.4532C31.2916 10.8594 31.2916 10.7969 31.2916 21.2813V30.9063H29.5729H27.8541V27.4688C27.8541 24.5313 27.8854 24.0313 28.0885 24.0313C28.2135 24.0313 28.5416 23.8282 28.8229 23.5782L29.3385 23.1251V21.0001C29.3385 18.8907 29.3385 18.8751 28.901 18.4532C28.4791 18.0313 28.4322 18.0157 26.3697 17.9688L24.2604 17.9063V13.2501V8.5938L23.776 8.10943L23.2916 7.62505H20.4166H17.5416V4.51567C17.5416 1.01567 17.4791 0.81255 16.4166 0.6563C15.9479 0.578175 15.776 0.62505 15.4479 0.953175ZM21.7604 14.0313V17.9376H16.2135H10.6666V14.0313V10.1251H16.2135H21.7604V14.0313ZM41.9166 16.6876V20.5938H37.8541H33.7916V16.6876V12.7813H37.8541H41.9166V16.6876ZM52.3854 16.6876V20.5938H48.401H44.4166V16.6876V12.7813H48.401H52.3854V16.6876ZM26.9166 20.9844V21.5313H20.1979C15.4947 21.5313 13.3697 21.5782 13.1041 21.7032C12.5416 21.9688 12.2916 22.7813 12.6041 23.3751C12.7291 23.6251 12.9635 23.8751 13.0885 23.9376C13.2291 23.9844 16.0572 24.0313 19.3541 24.0313H25.3541V27.4688V30.9063H16.2916H7.2291V27.4688V24.0313H7.93223C9.1041 24.0313 9.68223 23.2344 9.24473 22.2657C8.99473 21.7032 8.46348 21.5313 6.99473 21.5313H5.6666V20.9844V20.4376H16.2916H26.9166V20.9844ZM41.9166 27.0001V30.9063H37.8541H33.7916V27.0001V23.0938H37.8541H41.9166V27.0001ZM52.3854 27.0001V30.9063H48.401H44.4166V27.0001V23.0938H48.401H52.3854V27.0001ZM63.0104 27.0001V30.9063H58.9479H54.8854V27.0001V23.0938H58.9479H63.0104V27.0001ZM77.9791 29.4688C77.9635 29.5469 76.4166 32.8126 74.5729 36.7344L71.2291 43.8751H65.2604C59.4635 43.8751 59.2916 43.8907 58.8854 44.2032C58.3385 44.6251 58.3229 45.5469 58.8385 46.0313C59.1979 46.3594 59.3072 46.3751 64.5885 46.4063L69.9947 46.4532L68.9635 48.6719L67.9322 50.9063H37.6666C21.0104 50.9063 7.38535 50.8751 7.38535 50.8594C7.38535 50.8282 7.7916 49.9219 8.2916 48.8594C8.80723 47.7969 9.26035 46.7969 9.30723 46.6407C9.40098 46.3907 10.6197 46.3751 31.9947 46.3751H54.5885L54.9635 45.9844C55.4791 45.4844 55.4791 44.7657 54.9635 44.2657L54.5885 43.8751H31.7916H8.99473L8.61973 43.3438C8.4166 43.0626 7.69785 42.0938 7.02598 41.2188C5.65098 39.4063 3.9791 36.1876 3.51035 34.4219L3.21348 33.3282L33.6666 33.3751C54.1354 33.4063 64.4166 33.3594 65.0104 33.2501C66.526 32.9688 67.3854 32.1407 67.7135 30.5938C67.8072 30.1251 67.9635 29.6407 68.0416 29.5313C68.1666 29.3907 69.3697 29.3438 73.1197 29.3438C75.8229 29.3438 78.0104 29.4063 77.9791 29.4688Z" fill="black"/>
</svg>
