<svg width="65" height="64" viewBox="0 0 65 64" fill="none" xmlns="http://www.w3.org/2000/svg">
<path d="M28.3063 0.561008C23.3677 1.23626 18.9587 2.89128 14.8542 5.61877C7.54559 10.4647 2.60699 18.0381 1.04464 26.7766C0.594477 29.279 0.594477 33.5424 1.0314 36.111C2.40839 44.0684 4.95051 49.7881 8.85637 53.7337C10.5644 55.455 12.0605 56.5142 13.9009 57.3086C15.2514 57.8912 17.3698 58.4473 18.7336 58.5664L19.7266 58.6591V60.4862C19.7266 62.1545 19.7531 62.3531 19.9914 62.5914C20.1768 62.7768 20.4283 62.8562 20.8123 62.8562C21.3816 62.8562 21.3816 62.8562 25.8436 58.3811L30.3188 53.9191V53.3233V52.7275L25.8436 48.2655C21.3816 43.7903 21.3816 43.7903 20.8123 43.7903C20.4283 43.7903 20.1768 43.8698 19.9914 44.0551C19.7531 44.2935 19.7266 44.4921 19.7266 46.1206V47.9345L18.9719 47.8418C12.9211 47.1269 7.39995 42.175 3.78537 34.2176L3.32196 33.1982H10.4452H17.5684L17.6479 35.4093C17.7273 37.7263 18.0583 41.1158 18.2834 41.9632C18.4291 42.5193 18.7203 42.7311 19.3294 42.7311C20.3489 42.7311 20.574 42.228 20.3224 40.3876C20.0576 38.5075 19.859 35.8859 19.859 34.4427V33.1982H32.4372H45.0154V34.4163C45.0154 37.4747 44.2078 43.5255 43.4266 46.4649L43.2809 46.968H37.0713C31.0205 46.968 30.8351 46.9812 30.5836 47.2328C30.4115 47.4049 30.3188 47.6697 30.3188 48.0272C30.3188 48.3847 30.4115 48.6495 30.5836 48.8216C30.8351 49.0732 31.0205 49.0864 36.7403 49.0864C40.5137 49.0864 42.6322 49.1394 42.6322 49.2188C42.6322 49.7352 41.1493 53.4425 40.3151 55.018C37.8127 59.7183 34.794 62.0354 31.709 61.6381C30.7689 61.519 29.286 60.8305 28.4916 60.1685C28.0679 59.811 27.7899 59.6786 27.4589 59.6786C26.8234 59.6786 26.3467 60.1685 26.3467 60.8173C26.3467 61.2145 26.4394 61.3866 26.8896 61.797C27.6442 62.4855 28.8888 63.2005 29.9216 63.5447C30.5836 63.7698 31.2059 63.836 32.6755 63.889C36.5682 63.9949 40.7785 63.1608 44.8433 61.4528C50.285 59.1755 55.2369 55.1504 58.5866 50.278C59.0236 49.6557 59.5002 49.0202 59.6723 48.8613C59.8445 48.7025 59.9769 48.4774 59.9769 48.3582C59.9769 48.2523 60.2417 47.6697 60.5727 47.0607C63.512 41.6189 64.7831 34.8929 63.9489 29.0937C62.797 20.9509 60.096 14.6486 56.018 10.5441C53.1714 7.67101 50.2585 6.22782 46.4454 5.75117L45.1478 5.60553V3.77839C45.1478 2.12336 45.1213 1.92475 44.883 1.68643C44.6977 1.50106 44.4461 1.42162 44.0621 1.42162C43.4928 1.42162 43.4928 1.42162 39.0308 5.89682L34.5556 10.3588V10.9546V11.5504L39.0308 16.0123C43.4928 20.4875 43.4928 20.4875 44.0621 20.4875C44.4461 20.4875 44.6977 20.4081 44.883 20.2227C45.1213 19.9844 45.1478 19.7858 45.1478 18.1573V16.3433L45.9158 16.436C47.4913 16.6214 49.7157 17.3496 51.1854 18.1705C55.0912 20.3551 58.5999 24.5655 61.089 30.047L61.5525 31.0797H54.416H47.2663V29.7689C47.2663 28.2728 47.0809 25.7571 46.8028 23.6122C46.5778 21.9307 46.3527 21.5468 45.5583 21.5468C44.6447 21.56 44.3004 22.1426 44.4858 23.3607C44.7109 24.8038 45.0154 28.4846 45.0154 29.7822V31.0797H32.4372H19.859V29.8484C19.859 26.8031 20.6534 20.7656 21.4478 17.866L21.5935 17.3099H28.0679H34.5556V16.2507V15.1915H28.3989C24.4534 15.1915 22.2422 15.1385 22.2422 15.059C22.2422 14.7942 23.1558 12.2918 23.7649 10.9281C25.6715 6.57206 28.346 3.5533 30.9675 2.78537C32.1459 2.44112 33.6288 2.58676 34.8337 3.16933C35.3765 3.42089 36.1312 3.91079 36.5284 4.24179C37.111 4.73168 37.3493 4.86408 37.7333 4.86408C38.3821 4.86408 38.7925 4.42715 38.7925 3.73866C38.7925 3.27525 38.6998 3.14285 38.0378 2.50732C37.1772 1.71291 35.5884 0.878773 34.357 0.561008C33.3773 0.309444 30.1467 0.309444 28.3063 0.561008ZM25.1551 4.22855C23.1823 6.57207 21.6464 9.47167 20.3224 13.3775L19.7266 15.1252L13.9539 15.165L8.19436 15.1915L9.0285 14.1058C12.2194 9.94832 16.6946 6.59855 21.6994 4.59928C22.8248 4.14911 25.4728 3.31497 25.8568 3.28849C25.9098 3.27525 25.592 3.69894 25.1551 4.22855ZM43.0956 7.2076C43.2015 7.65776 43.5722 7.77692 45.2537 7.92257C48.9478 8.21385 51.8871 9.57759 54.4822 12.2124C57.2494 15.0061 59.0765 18.528 60.7183 24.261C60.7713 24.4066 60.427 23.983 59.9769 23.3342C57.2494 19.4283 53.9128 16.6214 50.3909 15.2577C48.577 14.5692 47.1339 14.2646 45.267 14.172C43.6782 14.1058 43.5855 14.1058 43.3074 14.3838C43.0691 14.6221 43.0294 14.8207 43.0294 15.6813V16.7141L40.1563 13.8409L37.2699 10.9546L40.1165 8.10793L42.9632 5.26129L43.0029 6.08218C43.0161 6.54559 43.0559 7.04872 43.0956 7.2076ZM19.144 17.5085C19.0249 17.8263 18.4291 20.9774 18.204 22.5C17.9127 24.5523 17.6082 28.1404 17.6082 29.716V31.0797H10.2466H2.87179L2.96448 29.8219C3.14984 27.2003 3.87805 23.9962 4.84459 21.5203C5.33448 20.3022 6.5261 17.7865 6.77766 17.4688C6.88358 17.3496 8.30029 17.3099 13.0668 17.3099C18.4423 17.3099 19.2102 17.3364 19.144 17.5085ZM61.9099 34.4163C61.6584 38.1235 60.4403 42.3471 58.6793 45.7102L58.057 46.9018L51.8606 46.9415C45.9952 46.968 45.6642 46.9547 45.7304 46.7429C46.3394 44.7701 47.0941 39.0106 47.2265 35.4093L47.306 33.1982H54.6543H62.0026L61.9099 34.4163ZM6.73794 43.3137C10.4055 47.6168 15.3706 50.1456 20.137 50.1456C21.7126 50.1456 21.845 50.0132 21.845 48.5965V47.5638L24.7182 50.4502L27.6045 53.3233L24.7182 56.1964L21.845 59.0828V58.05C21.845 56.5274 21.8583 56.5407 18.9719 56.3023C18.4555 56.2626 17.5022 56.0773 16.8535 55.9051C11.9281 54.5811 8.1414 50.7017 5.59928 44.3861C5.10939 43.1548 4.83135 42.3207 4.1561 40.0169C4.10314 39.8712 4.44738 40.2817 4.89755 40.9437C5.36096 41.5925 6.18185 42.6649 6.73794 43.3137ZM56.5344 49.1923C56.5344 49.3777 54.7999 51.4961 53.701 52.6348C50.1394 56.3553 45.3597 59.2152 40.4211 60.6054C39.6531 60.8305 38.9911 61.0026 38.9646 61.0026C38.9382 61.0026 39.2824 60.5789 39.7193 60.0493C41.7186 57.6793 43.5458 54.1574 44.6844 50.5164C44.8698 49.9073 45.0551 49.338 45.0816 49.2453C45.1213 49.1261 46.3924 49.0864 50.8411 49.0864C53.9658 49.0864 56.5344 49.1261 56.5344 49.1923Z" fill="black"/>
</svg>
